<svg width="2986" height="988" xmlns="http://www.w3.org/2000/svg" xmlns:xlink="http://www.w3.org/1999/xlink" xml:space="preserve" overflow="hidden"><g transform="translate(-162 -350)"><text fill="#003D7C" font-family="Calibri,Calibri_MSFontService,sans-serif" font-weight="700" font-size="60" transform="matrix(1 0 0 1 198 425)">AoS </text><text fill="#003D7C" font-family="Calibri,Calibri_MSFontService,sans-serif" font-weight="700" font-size="60" transform="matrix(1 0 0 1 308 425)">—</text><text fill="#003D7C" font-family="Calibri,Calibri_MSFontService,sans-serif" font-weight="700" font-size="60" transform="matrix(1 0 0 1 375.604 425)">Array of Structures</text><text fill="#C0392B" font-family="Calibri,Calibri_MSFontService,sans-serif" font-style="italic" font-weight="400" font-size="46" transform="matrix(1 0 0 1 198 507)">Reading only X ... fetches y, z, w you don't need</text><rect x="198.5" y="561.5" width="139" height="165" stroke="#FFFFFF" stroke-width="4.58333" stroke-linejoin="round" stroke-miterlimit="10" fill="#EF7C00"/><text fill="#FFFFFF" font-family="Consolas,Consolas_MSFontService,sans-serif" font-weight="700" font-size="55" transform="matrix(1 0 0 1 252.118 662)">x</text><rect x="343.5" y="561.5" width="139" height="165" stroke="#FFFFFF" stroke-width="4.58333" stroke-linejoin="round" stroke-miterlimit="10" fill="#D9DFE6"/><text fill="#5B6670" font-family="Consolas,Consolas_MSFontService,sans-serif" font-weight="700" font-size="55" transform="matrix(1 0 0 1 397.318 662)">y</text><rect x="488.5" y="561.5" width="139" height="165" stroke="#FFFFFF" stroke-width="4.58333" stroke-linejoin="round" stroke-miterlimit="10" fill="#D9DFE6"/><text fill="#5B6670" font-family="Consolas,Consolas_MSFontService,sans-serif" font-weight="700" font-size="55" transform="matrix(1 0 0 1 542.518 662)">z</text><rect x="634.5" y="561.5" width="138" height="165" stroke="#FFFFFF" stroke-width="4.58333" stroke-linejoin="round" stroke-miterlimit="10" fill="#D9DFE6"/><text fill="#5B6670" font-family="Consolas,Consolas_MSFontService,sans-serif" font-weight="700" font-size="55" transform="matrix(1 0 0 1 687.718 662)">w</text><rect x="779.5" y="561.5" width="138" height="165" stroke="#FFFFFF" stroke-width="4.58333" stroke-linejoin="round" stroke-miterlimit="10" fill="#EF7C00"/><text fill="#FFFFFF" font-family="Consolas,Consolas_MSFontService,sans-serif" font-weight="700" font-size="55" transform="matrix(1 0 0 1 832.918 662)">x</text><rect x="924.5" y="561.5" width="139" height="165" stroke="#FFFFFF" stroke-width="4.58333" stroke-linejoin="round" stroke-miterlimit="10" fill="#D9DFE6"/><text fill="#5B6670" font-family="Consolas,Consolas_MSFontService,sans-serif" font-weight="700" font-size="55" transform="matrix(1 0 0 1 978.118 662)">y</text><rect x="1069.5" y="561.5" width="139" height="165" stroke="#FFFFFF" stroke-width="4.58333" stroke-linejoin="round" stroke-miterlimit="10" fill="#D9DFE6"/><text fill="#5B6670" font-family="Consolas,Consolas_MSFontService,sans-serif" font-weight="700" font-size="55" transform="matrix(1 0 0 1 1123.32 662)">z</text><rect x="1214.5" y="561.5" width="139" height="165" stroke="#FFFFFF" stroke-width="4.58333" stroke-linejoin="round" stroke-miterlimit="10" fill="#D9DFE6"/><text fill="#5B6670" font-family="Consolas,Consolas_MSFontService,sans-serif" font-weight="700" font-size="55" transform="matrix(1 0 0 1 1268.52 662)">w</text><rect x="1360.5" y="561.5" width="138" height="165" stroke="#FFFFFF" stroke-width="4.58333" stroke-linejoin="round" stroke-miterlimit="10" fill="#EF7C00"/><text fill="#FFFFFF" font-family="Consolas,Consolas_MSFontService,sans-serif" font-weight="700" font-size="55" transform="matrix(1 0 0 1 1413.72 662)">x</text><rect x="1505.5" y="561.5" width="138" height="165" stroke="#FFFFFF" stroke-width="4.58333" stroke-linejoin="round" stroke-miterlimit="10" fill="#D9DFE6"/><text fill="#5B6670" font-family="Consolas,Consolas_MSFontService,sans-serif" font-weight="700" font-size="55" transform="matrix(1 0 0 1 1558.92 662)">y</text><rect x="1650.5" y="561.5" width="139" height="165" stroke="#FFFFFF" stroke-width="4.58333" stroke-linejoin="round" stroke-miterlimit="10" fill="#D9DFE6"/><text fill="#5B6670" font-family="Consolas,Consolas_MSFontService,sans-serif" font-weight="700" font-size="55" transform="matrix(1 0 0 1 1704.12 662)">z</text><rect x="1795.5" y="561.5" width="139" height="165" stroke="#FFFFFF" stroke-width="4.58333" stroke-linejoin="round" stroke-miterlimit="10" fill="#D9DFE6"/><text fill="#5B6670" font-family="Consolas,Consolas_MSFontService,sans-serif" font-weight="700" font-size="55" transform="matrix(1 0 0 1 1849.32 662)">w</text><rect x="1940.5" y="561.5" width="139" height="165" stroke="#FFFFFF" stroke-width="4.58333" stroke-linejoin="round" stroke-miterlimit="10" fill="#EF7C00"/><text fill="#FFFFFF" font-family="Consolas,Consolas_MSFontService,sans-serif" font-weight="700" font-size="55" transform="matrix(1 0 0 1 1994.52 662)">x</text><rect x="2086.5" y="561.5" width="138" height="165" stroke="#FFFFFF" stroke-width="4.58333" stroke-linejoin="round" stroke-miterlimit="10" fill="#D9DFE6"/><text fill="#5B6670" font-family="Consolas,Consolas_MSFontService,sans-serif" font-weight="700" font-size="55" transform="matrix(1 0 0 1 2139.72 662)">y</text><rect x="2231.5" y="561.5" width="138" height="165" stroke="#FFFFFF" stroke-width="4.58333" stroke-linejoin="round" stroke-miterlimit="10" fill="#D9DFE6"/><text fill="#5B6670" font-family="Consolas,Consolas_MSFontService,sans-serif" font-weight="700" font-size="55" transform="matrix(1 0 0 1 2284.92 662)">z</text><rect x="2376.5" y="561.5" width="139" height="165" stroke="#FFFFFF" stroke-width="4.58333" stroke-linejoin="round" stroke-miterlimit="10" fill="#D9DFE6"/><text fill="#5B6670" font-family="Consolas,Consolas_MSFontService,sans-serif" font-weight="700" font-size="55" transform="matrix(1 0 0 1 2430.12 662)">w</text><text fill="#C0392B" font-family="Arial Black,Arial Black_MSFontService,sans-serif" font-weight="900" font-size="73" transform="matrix(1 0 0 1 2587.2 669)">25% useful</text><text fill="#003D7C" font-family="Calibri,Calibri_MSFontService,sans-serif" font-weight="700" font-size="60" transform="matrix(1 0 0 1 198 936)">SoA </text><text fill="#003D7C" font-family="Calibri,Calibri_MSFontService,sans-serif" font-weight="700" font-size="60" transform="matrix(1 0 0 1 308 936)">—</text><text fill="#003D7C" font-family="Calibri,Calibri_MSFontService,sans-serif" font-weight="700" font-size="60" transform="matrix(1 0 0 1 375.604 936)">Structure of Arrays</text><text fill="#2E7D32" font-family="Calibri,Calibri_MSFontService,sans-serif" font-style="italic" font-weight="400" font-size="46" transform="matrix(1 0 0 1 198 1019)">X values packed contiguously </text><text fill="#2E7D32" font-family="Calibri,Calibri_MSFontService,sans-serif" font-style="italic" font-weight="400" font-size="46" transform="matrix(1 0 0 1 746.854 1019)">—</text><text fill="#2E7D32" font-family="Calibri,Calibri_MSFontService,sans-serif" font-style="italic" font-weight="400" font-size="46" transform="matrix(1 0 0 1 798.417 1019)">every byte earns its keep</text><rect x="198.5" y="1073.5" width="139" height="165" stroke="#FFFFFF" stroke-width="4.58333" stroke-linejoin="round" stroke-miterlimit="10" fill="#EF7C00"/><text fill="#FFFFFF" font-family="Consolas,Consolas_MSFontService,sans-serif" font-weight="700" font-size="55" transform="matrix(1 0 0 1 252.118 1174)">x</text><rect x="343.5" y="1073.5" width="139" height="165" stroke="#FFFFFF" stroke-width="4.58333" stroke-linejoin="round" stroke-miterlimit="10" fill="#EF7C00"/><text fill="#FFFFFF" font-family="Consolas,Consolas_MSFontService,sans-serif" font-weight="700" font-size="55" transform="matrix(1 0 0 1 397.318 1174)">x</text><rect x="488.5" y="1073.5" width="139" height="165" stroke="#FFFFFF" stroke-width="4.58333" stroke-linejoin="round" stroke-miterlimit="10" fill="#EF7C00"/><text fill="#FFFFFF" font-family="Consolas,Consolas_MSFontService,sans-serif" font-weight="700" font-size="55" transform="matrix(1 0 0 1 542.518 1174)">x</text><rect x="634.5" y="1073.5" width="138" height="165" stroke="#FFFFFF" stroke-width="4.58333" stroke-linejoin="round" stroke-miterlimit="10" fill="#EF7C00"/><text fill="#FFFFFF" font-family="Consolas,Consolas_MSFontService,sans-serif" font-weight="700" font-size="55" transform="matrix(1 0 0 1 687.718 1174)">x</text><rect x="779.5" y="1073.5" width="138" height="165" stroke="#FFFFFF" stroke-width="4.58333" stroke-linejoin="round" stroke-miterlimit="10" fill="#EF7C00"/><text fill="#FFFFFF" font-family="Consolas,Consolas_MSFontService,sans-serif" font-weight="700" font-size="55" transform="matrix(1 0 0 1 832.918 1174)">x</text><rect x="924.5" y="1073.5" width="139" height="165" stroke="#FFFFFF" stroke-width="4.58333" stroke-linejoin="round" stroke-miterlimit="10" fill="#EF7C00"/><text fill="#FFFFFF" font-family="Consolas,Consolas_MSFontService,sans-serif" font-weight="700" font-size="55" transform="matrix(1 0 0 1 978.118 1174)">x</text><rect x="1069.5" y="1073.5" width="139" height="165" stroke="#FFFFFF" stroke-width="4.58333" stroke-linejoin="round" stroke-miterlimit="10" fill="#EF7C00"/><text fill="#FFFFFF" font-family="Consolas,Consolas_MSFontService,sans-serif" font-weight="700" font-size="55" transform="matrix(1 0 0 1 1123.32 1174)">x</text><rect x="1214.5" y="1073.5" width="139" height="165" stroke="#FFFFFF" stroke-width="4.58333" stroke-linejoin="round" stroke-miterlimit="10" fill="#EF7C00"/><text fill="#FFFFFF" font-family="Consolas,Consolas_MSFontService,sans-serif" font-weight="700" font-size="55" transform="matrix(1 0 0 1 1268.52 1174)">x</text><rect x="1360.5" y="1073.5" width="138" height="165" stroke="#FFFFFF" stroke-width="4.58333" stroke-linejoin="round" stroke-miterlimit="10" fill="#EF7C00"/><text fill="#FFFFFF" font-family="Consolas,Consolas_MSFontService,sans-serif" font-weight="700" font-size="55" transform="matrix(1 0 0 1 1413.72 1174)">x</text><rect x="1505.5" y="1073.5" width="138" height="165" stroke="#FFFFFF" stroke-width="4.58333" stroke-linejoin="round" stroke-miterlimit="10" fill="#EF7C00"/><text fill="#FFFFFF" font-family="Consolas,Consolas_MSFontService,sans-serif" font-weight="700" font-size="55" transform="matrix(1 0 0 1 1558.92 1174)">x</text><rect x="1650.5" y="1073.5" width="139" height="165" stroke="#FFFFFF" stroke-width="4.58333" stroke-linejoin="round" stroke-miterlimit="10" fill="#EF7C00"/><text fill="#FFFFFF" font-family="Consolas,Consolas_MSFontService,sans-serif" font-weight="700" font-size="55" transform="matrix(1 0 0 1 1704.12 1174)">x</text><rect x="1795.5" y="1073.5" width="139" height="165" stroke="#FFFFFF" stroke-width="4.58333" stroke-linejoin="round" stroke-miterlimit="10" fill="#EF7C00"/><text fill="#FFFFFF" font-family="Consolas,Consolas_MSFontService,sans-serif" font-weight="700" font-size="55" transform="matrix(1 0 0 1 1849.32 1174)">x</text><rect x="1940.5" y="1073.5" width="139" height="165" stroke="#FFFFFF" stroke-width="4.58333" stroke-linejoin="round" stroke-miterlimit="10" fill="#EF7C00"/><text fill="#FFFFFF" font-family="Consolas,Consolas_MSFontService,sans-serif" font-weight="700" font-size="55" transform="matrix(1 0 0 1 1994.52 1174)">x</text><rect x="2086.5" y="1073.5" width="138" height="165" stroke="#FFFFFF" stroke-width="4.58333" stroke-linejoin="round" stroke-miterlimit="10" fill="#EF7C00"/><text fill="#FFFFFF" font-family="Consolas,Consolas_MSFontService,sans-serif" font-weight="700" font-size="55" transform="matrix(1 0 0 1 2139.72 1174)">x</text><rect x="2231.5" y="1073.5" width="138" height="165" stroke="#FFFFFF" stroke-width="4.58333" stroke-linejoin="round" stroke-miterlimit="10" fill="#EF7C00"/><text fill="#FFFFFF" font-family="Consolas,Consolas_MSFontService,sans-serif" font-weight="700" font-size="55" transform="matrix(1 0 0 1 2284.92 1174)">x</text><rect x="2376.5" y="1073.5" width="139" height="165" stroke="#FFFFFF" stroke-width="4.58333" stroke-linejoin="round" stroke-miterlimit="10" fill="#EF7C00"/><text fill="#FFFFFF" font-family="Consolas,Consolas_MSFontService,sans-serif" font-weight="700" font-size="55" transform="matrix(1 0 0 1 2430.12 1174)">x</text><text fill="#2E7D32" font-family="Arial Black,Arial Black_MSFontService,sans-serif" font-weight="900" font-size="73" transform="matrix(1 0 0 1 2587.2 1180)">100% useful</text><text fill="#5B6670" font-family="Calibri,Calibri_MSFontService,sans-serif" font-style="italic" font-weight="400" font-size="41" transform="matrix(1 0 0 1 1127 790)">← one 64</text><text fill="#5B6670" font-family="Calibri,Calibri_MSFontService,sans-serif" font-style="italic" font-weight="400" font-size="41" transform="matrix(1 0 0 1 1285.69 790)">-</text><text fill="#5B6670" font-family="Calibri,Calibri_MSFontService,sans-serif" font-style="italic" font-weight="400" font-size="41" transform="matrix(1 0 0 1 1298.3 790)">byte cache line →</text><text fill="#5B6670" font-family="Calibri,Calibri_MSFontService,sans-serif" font-style="italic" font-weight="400" font-size="41" transform="matrix(1 0 0 1 1127 1301)">← one 64</text><text fill="#5B6670" font-family="Calibri,Calibri_MSFontService,sans-serif" font-style="italic" font-weight="400" font-size="41" transform="matrix(1 0 0 1 1285.69 1301)">-</text><text fill="#5B6670" font-family="Calibri,Calibri_MSFontService,sans-serif" font-style="italic" font-weight="400" font-size="41" transform="matrix(1 0 0 1 1298.3 1301)">byte cache line →</text></g></svg>