<svg width="1616" height="909" xmlns="http://www.w3.org/2000/svg" xmlns:xlink="http://www.w3.org/1999/xlink" xml:space="preserve" overflow="hidden"><g transform="translate(-159 -419)"><text fill="#2E7D32" font-family="Calibri,Calibri_MSFontService,sans-serif" font-weight="700" font-size="64" transform="matrix(1 0 0 1 198 501)">Row</text><text fill="#2E7D32" font-family="Calibri,Calibri_MSFontService,sans-serif" font-weight="700" font-size="64" transform="matrix(1 0 0 1 314.783 501)">-</text><text fill="#2E7D32" font-family="Calibri,Calibri_MSFontService,sans-serif" font-weight="700" font-size="64" transform="matrix(1 0 0 1 334.262 501)">major  </text><text fill="#2E7D32" font-family="Segoe UI Symbol,Segoe UI Symbol_MSFontService,sans-serif" font-weight="700" font-size="64" transform="matrix(1 0 0 1 520.46 501)">✓</text><rect x="198" y="528" width="85.9999" height="85.9999" stroke="#D0D5DC" stroke-width="2.29167" stroke-linejoin="round" stroke-miterlimit="10" fill="#EF7C00"/><rect x="290" y="528" width="85.9999" height="85.9999" stroke="#D0D5DC" stroke-width="2.29167" stroke-linejoin="round" stroke-miterlimit="10" fill="#EF7C00"/><rect x="383" y="528" width="85.9999" height="85.9999" stroke="#D0D5DC" stroke-width="2.29167" stroke-linejoin="round" stroke-miterlimit="10" fill="#EF7C00"/><rect x="475" y="528" width="85.9999" height="85.9999" stroke="#D0D5DC" stroke-width="2.29167" stroke-linejoin="round" stroke-miterlimit="10" fill="#EF7C00"/><rect x="568" y="528" width="85.0002" height="85.9999" stroke="#D0D5DC" stroke-width="2.29167" stroke-linejoin="round" stroke-miterlimit="10" fill="#EF7C00"/><rect x="660" y="528" width="85.9999" height="85.9999" stroke="#D0D5DC" stroke-width="2.29167" stroke-linejoin="round" stroke-miterlimit="10" fill="#EF7C00"/><rect x="198" y="620" width="85.9999" height="85.9999" stroke="#D0D5DC" stroke-width="2.29167" stroke-linejoin="round" stroke-miterlimit="10" fill="#FDB87A"/><rect x="290" y="620" width="85.9999" height="85.9999" stroke="#D0D5DC" stroke-width="2.29167" stroke-linejoin="round" stroke-miterlimit="10" fill="#FDB87A"/><rect x="383" y="620" width="85.9999" height="85.9999" stroke="#D0D5DC" stroke-width="2.29167" stroke-linejoin="round" stroke-miterlimit="10" fill="#FDB87A"/><rect x="475" y="620" width="85.9999" height="85.9999" stroke="#D0D5DC" stroke-width="2.29167" stroke-linejoin="round" stroke-miterlimit="10" fill="#FDB87A"/><rect x="568" y="620" width="85.0002" height="85.9999" stroke="#D0D5DC" stroke-width="2.29167" stroke-linejoin="round" stroke-miterlimit="10" fill="#FDB87A"/><rect x="660" y="620" width="85.9999" height="85.9999" stroke="#D0D5DC" stroke-width="2.29167" stroke-linejoin="round" stroke-miterlimit="10" fill="#FDB87A"/><rect x="198" y="713" width="85.9999" height="85.9999" stroke="#D0D5DC" stroke-width="2.29167" stroke-linejoin="round" stroke-miterlimit="10" fill="#F5F7FA"/><rect x="290" y="713" width="85.9999" height="85.9999" stroke="#D0D5DC" stroke-width="2.29167" stroke-linejoin="round" stroke-miterlimit="10" fill="#F5F7FA"/><rect x="383" y="713" width="85.9999" height="85.9999" stroke="#D0D5DC" stroke-width="2.29167" stroke-linejoin="round" stroke-miterlimit="10" fill="#F5F7FA"/><rect x="475" y="713" width="85.9999" height="85.9999" stroke="#D0D5DC" stroke-width="2.29167" stroke-linejoin="round" stroke-miterlimit="10" fill="#F5F7FA"/><rect x="568" y="713" width="85.0002" height="85.9999" stroke="#D0D5DC" stroke-width="2.29167" stroke-linejoin="round" stroke-miterlimit="10" fill="#F5F7FA"/><rect x="660" y="713" width="85.9999" height="85.9999" stroke="#D0D5DC" stroke-width="2.29167" stroke-linejoin="round" stroke-miterlimit="10" fill="#F5F7FA"/><rect x="198" y="805" width="85.9999" height="85.9999" stroke="#D0D5DC" stroke-width="2.29167" stroke-linejoin="round" stroke-miterlimit="10" fill="#F5F7FA"/><rect x="290" y="805" width="85.9999" height="85.9999" stroke="#D0D5DC" stroke-width="2.29167" stroke-linejoin="round" stroke-miterlimit="10" fill="#F5F7FA"/><rect x="383" y="805" width="85.9999" height="85.9999" stroke="#D0D5DC" stroke-width="2.29167" stroke-linejoin="round" stroke-miterlimit="10" fill="#F5F7FA"/><rect x="475" y="805" width="85.9999" height="85.9999" stroke="#D0D5DC" stroke-width="2.29167" stroke-linejoin="round" stroke-miterlimit="10" fill="#F5F7FA"/><rect x="568" y="805" width="85.0002" height="85.9999" stroke="#D0D5DC" stroke-width="2.29167" stroke-linejoin="round" stroke-miterlimit="10" fill="#F5F7FA"/><rect x="660" y="805" width="85.9999" height="85.9999" stroke="#D0D5DC" stroke-width="2.29167" stroke-linejoin="round" stroke-miterlimit="10" fill="#F5F7FA"/><rect x="198" y="898" width="85.9999" height="85.0002" stroke="#D0D5DC" stroke-width="2.29167" stroke-linejoin="round" stroke-miterlimit="10" fill="#F5F7FA"/><rect x="290" y="898" width="85.9999" height="85.0002" stroke="#D0D5DC" stroke-width="2.29167" stroke-linejoin="round" stroke-miterlimit="10" fill="#F5F7FA"/><rect x="383" y="898" width="85.9999" height="85.0002" stroke="#D0D5DC" stroke-width="2.29167" stroke-linejoin="round" stroke-miterlimit="10" fill="#F5F7FA"/><rect x="475" y="898" width="85.9999" height="85.0002" stroke="#D0D5DC" stroke-width="2.29167" stroke-linejoin="round" stroke-miterlimit="10" fill="#F5F7FA"/><rect x="568" y="898" width="85.0002" height="85.0002" stroke="#D0D5DC" stroke-width="2.29167" stroke-linejoin="round" stroke-miterlimit="10" fill="#F5F7FA"/><rect x="660" y="898" width="85.9999" height="85.0002" stroke="#D0D5DC" stroke-width="2.29167" stroke-linejoin="round" stroke-miterlimit="10" fill="#F5F7FA"/><rect x="198" y="990" width="85.9999" height="85.9999" stroke="#D0D5DC" stroke-width="2.29167" stroke-linejoin="round" stroke-miterlimit="10" fill="#F5F7FA"/><rect x="290" y="990" width="85.9999" height="85.9999" stroke="#D0D5DC" stroke-width="2.29167" stroke-linejoin="round" stroke-miterlimit="10" fill="#F5F7FA"/><rect x="383" y="990" width="85.9999" height="85.9999" stroke="#D0D5DC" stroke-width="2.29167" stroke-linejoin="round" stroke-miterlimit="10" fill="#F5F7FA"/><rect x="475" y="990" width="85.9999" height="85.9999" stroke="#D0D5DC" stroke-width="2.29167" stroke-linejoin="round" stroke-miterlimit="10" fill="#F5F7FA"/><rect x="568" y="990" width="85.0002" height="85.9999" stroke="#D0D5DC" stroke-width="2.29167" stroke-linejoin="round" stroke-miterlimit="10" fill="#F5F7FA"/><rect x="660" y="990" width="85.9999" height="85.9999" stroke="#D0D5DC" stroke-width="2.29167" stroke-linejoin="round" stroke-miterlimit="10" fill="#F5F7FA"/><path d="M198.5 1136.25 695 1136.25 695 1115.5 736.5 1157 695 1198.5 695 1177.75 198.5 1177.75Z" stroke="#2E7D32" stroke-width="4.58333" stroke-miterlimit="8" fill="#2E7D32" fill-rule="evenodd"/><text fill="#2E7D32" font-family="Calibri,Calibri_MSFontService,sans-serif" font-style="italic" font-weight="400" font-size="46" transform="matrix(1 0 0 1 198 1288)">sequential  →  cache hit</text><text fill="#C0392B" font-family="Calibri,Calibri_MSFontService,sans-serif" font-weight="700" font-size="64" transform="matrix(1 0 0 1 950.4 501)">Column</text><text fill="#C0392B" font-family="Calibri,Calibri_MSFontService,sans-serif" font-weight="700" font-size="64" transform="matrix(1 0 0 1 1155.5 501)">-</text><text fill="#C0392B" font-family="Calibri,Calibri_MSFontService,sans-serif" font-weight="700" font-size="64" transform="matrix(1 0 0 1 1174.98 501)">major  </text><text fill="#C0392B" font-family="Segoe UI Symbol,Segoe UI Symbol_MSFontService,sans-serif" font-weight="700" font-size="64" transform="matrix(1 0 0 1 1361.18 501)">✗</text><rect x="950" y="528" width="85.9999" height="85.9999" stroke="#D0D5DC" stroke-width="2.29167" stroke-linejoin="round" stroke-miterlimit="10" fill="#EF7C00"/><rect x="1043" y="528" width="85.9999" height="85.9999" stroke="#D0D5DC" stroke-width="2.29167" stroke-linejoin="round" stroke-miterlimit="10" fill="#FDB87A"/><rect x="1135" y="528" width="85.9999" height="85.9999" stroke="#D0D5DC" stroke-width="2.29167" stroke-linejoin="round" stroke-miterlimit="10" fill="#F5F7FA"/><rect x="1228" y="528" width="85.0002" height="85.9999" stroke="#D0D5DC" stroke-width="2.29167" stroke-linejoin="round" stroke-miterlimit="10" fill="#F5F7FA"/><rect x="1320" y="528" width="85.9999" height="85.9999" stroke="#D0D5DC" stroke-width="2.29167" stroke-linejoin="round" stroke-miterlimit="10" fill="#F5F7FA"/><rect x="1412" y="528" width="85.9999" height="85.9999" stroke="#D0D5DC" stroke-width="2.29167" stroke-linejoin="round" stroke-miterlimit="10" fill="#F5F7FA"/><rect x="950" y="620" width="85.9999" height="85.9999" stroke="#D0D5DC" stroke-width="2.29167" stroke-linejoin="round" stroke-miterlimit="10" fill="#EF7C00"/><rect x="1043" y="620" width="85.9999" height="85.9999" stroke="#D0D5DC" stroke-width="2.29167" stroke-linejoin="round" stroke-miterlimit="10" fill="#FDB87A"/><rect x="1135" y="620" width="85.9999" height="85.9999" stroke="#D0D5DC" stroke-width="2.29167" stroke-linejoin="round" stroke-miterlimit="10" fill="#F5F7FA"/><rect x="1228" y="620" width="85.0002" height="85.9999" stroke="#D0D5DC" stroke-width="2.29167" stroke-linejoin="round" stroke-miterlimit="10" fill="#F5F7FA"/><rect x="1320" y="620" width="85.9999" height="85.9999" stroke="#D0D5DC" stroke-width="2.29167" stroke-linejoin="round" stroke-miterlimit="10" fill="#F5F7FA"/><rect x="1412" y="620" width="85.9999" height="85.9999" stroke="#D0D5DC" stroke-width="2.29167" stroke-linejoin="round" stroke-miterlimit="10" fill="#F5F7FA"/><rect x="950" y="713" width="85.9999" height="85.9999" stroke="#D0D5DC" stroke-width="2.29167" stroke-linejoin="round" stroke-miterlimit="10" fill="#EF7C00"/><rect x="1043" y="713" width="85.9999" height="85.9999" stroke="#D0D5DC" stroke-width="2.29167" stroke-linejoin="round" stroke-miterlimit="10" fill="#FDB87A"/><rect x="1135" y="713" width="85.9999" height="85.9999" stroke="#D0D5DC" stroke-width="2.29167" stroke-linejoin="round" stroke-miterlimit="10" fill="#F5F7FA"/><rect x="1228" y="713" width="85.0002" height="85.9999" stroke="#D0D5DC" stroke-width="2.29167" stroke-linejoin="round" stroke-miterlimit="10" fill="#F5F7FA"/><rect x="1320" y="713" width="85.9999" height="85.9999" stroke="#D0D5DC" stroke-width="2.29167" stroke-linejoin="round" stroke-miterlimit="10" fill="#F5F7FA"/><rect x="1412" y="713" width="85.9999" height="85.9999" stroke="#D0D5DC" stroke-width="2.29167" stroke-linejoin="round" stroke-miterlimit="10" fill="#F5F7FA"/><rect x="950" y="805" width="85.9999" height="85.9999" stroke="#D0D5DC" stroke-width="2.29167" stroke-linejoin="round" stroke-miterlimit="10" fill="#EF7C00"/><rect x="1043" y="805" width="85.9999" height="85.9999" stroke="#D0D5DC" stroke-width="2.29167" stroke-linejoin="round" stroke-miterlimit="10" fill="#FDB87A"/><rect x="1135" y="805" width="85.9999" height="85.9999" stroke="#D0D5DC" stroke-width="2.29167" stroke-linejoin="round" stroke-miterlimit="10" fill="#F5F7FA"/><rect x="1228" y="805" width="85.0002" height="85.9999" stroke="#D0D5DC" stroke-width="2.29167" stroke-linejoin="round" stroke-miterlimit="10" fill="#F5F7FA"/><rect x="1320" y="805" width="85.9999" height="85.9999" stroke="#D0D5DC" stroke-width="2.29167" stroke-linejoin="round" stroke-miterlimit="10" fill="#F5F7FA"/><rect x="1412" y="805" width="85.9999" height="85.9999" stroke="#D0D5DC" stroke-width="2.29167" stroke-linejoin="round" stroke-miterlimit="10" fill="#F5F7FA"/><rect x="950" y="898" width="85.9999" height="85.0002" stroke="#D0D5DC" stroke-width="2.29167" stroke-linejoin="round" stroke-miterlimit="10" fill="#EF7C00"/><rect x="1043" y="898" width="85.9999" height="85.0002" stroke="#D0D5DC" stroke-width="2.29167" stroke-linejoin="round" stroke-miterlimit="10" fill="#FDB87A"/><rect x="1135" y="898" width="85.9999" height="85.0002" stroke="#D0D5DC" stroke-width="2.29167" stroke-linejoin="round" stroke-miterlimit="10" fill="#F5F7FA"/><rect x="1228" y="898" width="85.0002" height="85.0002" stroke="#D0D5DC" stroke-width="2.29167" stroke-linejoin="round" stroke-miterlimit="10" fill="#F5F7FA"/><rect x="1320" y="898" width="85.9999" height="85.0002" stroke="#D0D5DC" stroke-width="2.29167" stroke-linejoin="round" stroke-miterlimit="10" fill="#F5F7FA"/><rect x="1412" y="898" width="85.9999" height="85.0002" stroke="#D0D5DC" stroke-width="2.29167" stroke-linejoin="round" stroke-miterlimit="10" fill="#F5F7FA"/><rect x="950" y="990" width="85.9999" height="85.9999" stroke="#D0D5DC" stroke-width="2.29167" stroke-linejoin="round" stroke-miterlimit="10" fill="#EF7C00"/><rect x="1043" y="990" width="85.9999" height="85.9999" stroke="#D0D5DC" stroke-width="2.29167" stroke-linejoin="round" stroke-miterlimit="10" fill="#FDB87A"/><rect x="1135" y="990" width="85.9999" height="85.9999" stroke="#D0D5DC" stroke-width="2.29167" stroke-linejoin="round" stroke-miterlimit="10" fill="#F5F7FA"/><rect x="1228" y="990" width="85.0002" height="85.9999" stroke="#D0D5DC" stroke-width="2.29167" stroke-linejoin="round" stroke-miterlimit="10" fill="#F5F7FA"/><rect x="1320" y="990" width="85.9999" height="85.9999" stroke="#D0D5DC" stroke-width="2.29167" stroke-linejoin="round" stroke-miterlimit="10" fill="#F5F7FA"/><rect x="1412" y="990" width="85.9999" height="85.9999" stroke="#D0D5DC" stroke-width="2.29167" stroke-linejoin="round" stroke-miterlimit="10" fill="#F5F7FA"/><path d="M967.5 1037 982.25 1037 982.25 528.5 1011.75 528.5 1011.75 1037 1026.5 1037 997 1066.5Z" stroke="#C0392B" stroke-width="4.58333" stroke-miterlimit="8" fill="#C0392B" fill-rule="evenodd"/><text fill="#C0392B" font-family="Calibri,Calibri_MSFontService,sans-serif" font-style="italic" font-weight="400" font-size="46" transform="matrix(1 0 0 1 950.4 1288)">strided  →  cache miss</text></g></svg>