<svg width="1739" height="1202" xmlns="http://www.w3.org/2000/svg" xmlns:xlink="http://www.w3.org/1999/xlink" xml:space="preserve" overflow="hidden"><g transform="translate(-159 -329)"><text fill="#003D7C" font-family="Georgia,Georgia_MSFontService,sans-serif" font-weight="700" font-size="64" transform="matrix(1 0 0 1 198 410)">A</text><rect x="198" y="462" width="59.0001" height="59.0001" stroke="#D0D5DC" stroke-width="2.29167" stroke-linejoin="round" stroke-miterlimit="10" fill="#F5F7FA"/><rect x="264" y="462" width="59.0001" height="59.0001" stroke="#D0D5DC" stroke-width="2.29167" stroke-linejoin="round" stroke-miterlimit="10" fill="#F5F7FA"/><rect x="330" y="462" width="59.0001" height="59.0001" stroke="#D0D5DC" stroke-width="2.29167" stroke-linejoin="round" stroke-miterlimit="10" fill="#F5F7FA"/><rect x="396" y="462" width="59.0001" height="59.0001" stroke="#D0D5DC" stroke-width="2.29167" stroke-linejoin="round" stroke-miterlimit="10" fill="#F5F7FA"/><rect x="462" y="462" width="59.0001" height="59.0001" stroke="#D0D5DC" stroke-width="2.29167" stroke-linejoin="round" stroke-miterlimit="10" fill="#F5F7FA"/><rect x="528" y="462" width="59.0001" height="59.0001" stroke="#D0D5DC" stroke-width="2.29167" stroke-linejoin="round" stroke-miterlimit="10" fill="#F5F7FA"/><rect x="198" y="528" width="59.0001" height="59.0001" stroke="#D0D5DC" stroke-width="2.29167" stroke-linejoin="round" stroke-miterlimit="10" fill="#F5F7FA"/><rect x="264" y="528" width="59.0001" height="59.0001" stroke="#D0D5DC" stroke-width="2.29167" stroke-linejoin="round" stroke-miterlimit="10" fill="#F5F7FA"/><rect x="330" y="528" width="59.0001" height="59.0001" stroke="#D0D5DC" stroke-width="2.29167" stroke-linejoin="round" stroke-miterlimit="10" fill="#F5F7FA"/><rect x="396" y="528" width="59.0001" height="59.0001" stroke="#D0D5DC" stroke-width="2.29167" stroke-linejoin="round" stroke-miterlimit="10" fill="#F5F7FA"/><rect x="462" y="528" width="59.0001" height="59.0001" stroke="#D0D5DC" stroke-width="2.29167" stroke-linejoin="round" stroke-miterlimit="10" fill="#F5F7FA"/><rect x="528" y="528" width="59.0001" height="59.0001" stroke="#D0D5DC" stroke-width="2.29167" stroke-linejoin="round" stroke-miterlimit="10" fill="#F5F7FA"/><rect x="198" y="594" width="59.0001" height="59.0001" stroke="#D0D5DC" stroke-width="2.29167" stroke-linejoin="round" stroke-miterlimit="10" fill="#EF7C00"/><rect x="264" y="594" width="59.0001" height="59.0001" stroke="#D0D5DC" stroke-width="2.29167" stroke-linejoin="round" stroke-miterlimit="10" fill="#EF7C00"/><rect x="330" y="594" width="59.0001" height="59.0001" stroke="#D0D5DC" stroke-width="2.29167" stroke-linejoin="round" stroke-miterlimit="10" fill="#EF7C00"/><rect x="396" y="594" width="59.0001" height="59.0001" stroke="#D0D5DC" stroke-width="2.29167" stroke-linejoin="round" stroke-miterlimit="10" fill="#EF7C00"/><rect x="462" y="594" width="59.0001" height="59.0001" stroke="#D0D5DC" stroke-width="2.29167" stroke-linejoin="round" stroke-miterlimit="10" fill="#EF7C00"/><rect x="528" y="594" width="59.0001" height="59.0001" stroke="#D0D5DC" stroke-width="2.29167" stroke-linejoin="round" stroke-miterlimit="10" fill="#EF7C00"/><rect x="198" y="660" width="59.0001" height="59.0001" stroke="#D0D5DC" stroke-width="2.29167" stroke-linejoin="round" stroke-miterlimit="10" fill="#F5F7FA"/><rect x="264" y="660" width="59.0001" height="59.0001" stroke="#D0D5DC" stroke-width="2.29167" stroke-linejoin="round" stroke-miterlimit="10" fill="#F5F7FA"/><rect x="330" y="660" width="59.0001" height="59.0001" stroke="#D0D5DC" stroke-width="2.29167" stroke-linejoin="round" stroke-miterlimit="10" fill="#F5F7FA"/><rect x="396" y="660" width="59.0001" height="59.0001" stroke="#D0D5DC" stroke-width="2.29167" stroke-linejoin="round" stroke-miterlimit="10" fill="#F5F7FA"/><rect x="462" y="660" width="59.0001" height="59.0001" stroke="#D0D5DC" stroke-width="2.29167" stroke-linejoin="round" stroke-miterlimit="10" fill="#F5F7FA"/><rect x="528" y="660" width="59.0001" height="59.0001" stroke="#D0D5DC" stroke-width="2.29167" stroke-linejoin="round" stroke-miterlimit="10" fill="#F5F7FA"/><rect x="198" y="726" width="59.0001" height="59.0001" stroke="#D0D5DC" stroke-width="2.29167" stroke-linejoin="round" stroke-miterlimit="10" fill="#F5F7FA"/><rect x="264" y="726" width="59.0001" height="59.0001" stroke="#D0D5DC" stroke-width="2.29167" stroke-linejoin="round" stroke-miterlimit="10" fill="#F5F7FA"/><rect x="330" y="726" width="59.0001" height="59.0001" stroke="#D0D5DC" stroke-width="2.29167" stroke-linejoin="round" stroke-miterlimit="10" fill="#F5F7FA"/><rect x="396" y="726" width="59.0001" height="59.0001" stroke="#D0D5DC" stroke-width="2.29167" stroke-linejoin="round" stroke-miterlimit="10" fill="#F5F7FA"/><rect x="462" y="726" width="59.0001" height="59.0001" stroke="#D0D5DC" stroke-width="2.29167" stroke-linejoin="round" stroke-miterlimit="10" fill="#F5F7FA"/><rect x="528" y="726" width="59.0001" height="59.0001" stroke="#D0D5DC" stroke-width="2.29167" stroke-linejoin="round" stroke-miterlimit="10" fill="#F5F7FA"/><rect x="198" y="792" width="59.0001" height="59.0001" stroke="#D0D5DC" stroke-width="2.29167" stroke-linejoin="round" stroke-miterlimit="10" fill="#F5F7FA"/><rect x="264" y="792" width="59.0001" height="59.0001" stroke="#D0D5DC" stroke-width="2.29167" stroke-linejoin="round" stroke-miterlimit="10" fill="#F5F7FA"/><rect x="330" y="792" width="59.0001" height="59.0001" stroke="#D0D5DC" stroke-width="2.29167" stroke-linejoin="round" stroke-miterlimit="10" fill="#F5F7FA"/><rect x="396" y="792" width="59.0001" height="59.0001" stroke="#D0D5DC" stroke-width="2.29167" stroke-linejoin="round" stroke-miterlimit="10" fill="#F5F7FA"/><rect x="462" y="792" width="59.0001" height="59.0001" stroke="#D0D5DC" stroke-width="2.29167" stroke-linejoin="round" stroke-miterlimit="10" fill="#F5F7FA"/><rect x="528" y="792" width="59.0001" height="59.0001" stroke="#D0D5DC" stroke-width="2.29167" stroke-linejoin="round" stroke-miterlimit="10" fill="#F5F7FA"/><text fill="#003D7C" font-family="Georgia,Georgia_MSFontService,sans-serif" font-weight="400" font-size="110" transform="matrix(1 0 0 1 634.666 698)">×</text><text fill="#C0392B" font-family="Calibri,Calibri_MSFontService,sans-serif" font-weight="700" font-size="55" transform="matrix(1 0 0 1 742.5 406)">B  (naïve: column</text><text fill="#C0392B" font-family="Calibri,Calibri_MSFontService,sans-serif" font-weight="700" font-size="55" transform="matrix(1 0 0 1 1137.03 406)">-</text><text fill="#C0392B" font-family="Calibri,Calibri_MSFontService,sans-serif" font-weight="700" font-size="55" transform="matrix(1 0 0 1 1153.65 406)">wise)</text><rect x="743" y="462" width="59.0001" height="59.0001" stroke="#D0D5DC" stroke-width="2.29167" stroke-linejoin="round" stroke-miterlimit="10" fill="#F5F7FA"/><rect x="809" y="462" width="59.0001" height="59.0001" stroke="#D0D5DC" stroke-width="2.29167" stroke-linejoin="round" stroke-miterlimit="10" fill="#F5F7FA"/><rect x="875" y="462" width="59.0001" height="59.0001" stroke="#D0D5DC" stroke-width="2.29167" stroke-linejoin="round" stroke-miterlimit="10" fill="#C0392B"/><rect x="941" y="462" width="59.0001" height="59.0001" stroke="#D0D5DC" stroke-width="2.29167" stroke-linejoin="round" stroke-miterlimit="10" fill="#F5F7FA"/><rect x="1007" y="462" width="59.0002" height="59.0001" stroke="#D0D5DC" stroke-width="2.29167" stroke-linejoin="round" stroke-miterlimit="10" fill="#F5F7FA"/><rect x="1073" y="462" width="59.0001" height="59.0001" stroke="#D0D5DC" stroke-width="2.29167" stroke-linejoin="round" stroke-miterlimit="10" fill="#F5F7FA"/><rect x="743" y="528" width="59.0001" height="59.0001" stroke="#D0D5DC" stroke-width="2.29167" stroke-linejoin="round" stroke-miterlimit="10" fill="#F5F7FA"/><rect x="809" y="528" width="59.0001" height="59.0001" stroke="#D0D5DC" stroke-width="2.29167" stroke-linejoin="round" stroke-miterlimit="10" fill="#F5F7FA"/><rect x="875" y="528" width="59.0001" height="59.0001" stroke="#D0D5DC" stroke-width="2.29167" stroke-linejoin="round" stroke-miterlimit="10" fill="#C0392B"/><rect x="941" y="528" width="59.0001" height="59.0001" stroke="#D0D5DC" stroke-width="2.29167" stroke-linejoin="round" stroke-miterlimit="10" fill="#F5F7FA"/><rect x="1007" y="528" width="59.0002" height="59.0001" stroke="#D0D5DC" stroke-width="2.29167" stroke-linejoin="round" stroke-miterlimit="10" fill="#F5F7FA"/><rect x="1073" y="528" width="59.0001" height="59.0001" stroke="#D0D5DC" stroke-width="2.29167" stroke-linejoin="round" stroke-miterlimit="10" fill="#F5F7FA"/><rect x="743" y="594" width="59.0001" height="59.0001" stroke="#D0D5DC" stroke-width="2.29167" stroke-linejoin="round" stroke-miterlimit="10" fill="#F5F7FA"/><rect x="809" y="594" width="59.0001" height="59.0001" stroke="#D0D5DC" stroke-width="2.29167" stroke-linejoin="round" stroke-miterlimit="10" fill="#F5F7FA"/><rect x="875" y="594" width="59.0001" height="59.0001" stroke="#D0D5DC" stroke-width="2.29167" stroke-linejoin="round" stroke-miterlimit="10" fill="#C0392B"/><rect x="941" y="594" width="59.0001" height="59.0001" stroke="#D0D5DC" stroke-width="2.29167" stroke-linejoin="round" stroke-miterlimit="10" fill="#F5F7FA"/><rect x="1007" y="594" width="59.0002" height="59.0001" stroke="#D0D5DC" stroke-width="2.29167" stroke-linejoin="round" stroke-miterlimit="10" fill="#F5F7FA"/><rect x="1073" y="594" width="59.0001" height="59.0001" stroke="#D0D5DC" stroke-width="2.29167" stroke-linejoin="round" stroke-miterlimit="10" fill="#F5F7FA"/><rect x="743" y="660" width="59.0001" height="59.0001" stroke="#D0D5DC" stroke-width="2.29167" stroke-linejoin="round" stroke-miterlimit="10" fill="#F5F7FA"/><rect x="809" y="660" width="59.0001" height="59.0001" stroke="#D0D5DC" stroke-width="2.29167" stroke-linejoin="round" stroke-miterlimit="10" fill="#F5F7FA"/><rect x="875" y="660" width="59.0001" height="59.0001" stroke="#D0D5DC" stroke-width="2.29167" stroke-linejoin="round" stroke-miterlimit="10" fill="#C0392B"/><rect x="941" y="660" width="59.0001" height="59.0001" stroke="#D0D5DC" stroke-width="2.29167" stroke-linejoin="round" stroke-miterlimit="10" fill="#F5F7FA"/><rect x="1007" y="660" width="59.0002" height="59.0001" stroke="#D0D5DC" stroke-width="2.29167" stroke-linejoin="round" stroke-miterlimit="10" fill="#F5F7FA"/><rect x="1073" y="660" width="59.0001" height="59.0001" stroke="#D0D5DC" stroke-width="2.29167" stroke-linejoin="round" stroke-miterlimit="10" fill="#F5F7FA"/><rect x="743" y="726" width="59.0001" height="59.0001" stroke="#D0D5DC" stroke-width="2.29167" stroke-linejoin="round" stroke-miterlimit="10" fill="#F5F7FA"/><rect x="809" y="726" width="59.0001" height="59.0001" stroke="#D0D5DC" stroke-width="2.29167" stroke-linejoin="round" stroke-miterlimit="10" fill="#F5F7FA"/><rect x="875" y="726" width="59.0001" height="59.0001" stroke="#D0D5DC" stroke-width="2.29167" stroke-linejoin="round" stroke-miterlimit="10" fill="#C0392B"/><rect x="941" y="726" width="59.0001" height="59.0001" stroke="#D0D5DC" stroke-width="2.29167" stroke-linejoin="round" stroke-miterlimit="10" fill="#F5F7FA"/><rect x="1007" y="726" width="59.0002" height="59.0001" stroke="#D0D5DC" stroke-width="2.29167" stroke-linejoin="round" stroke-miterlimit="10" fill="#F5F7FA"/><rect x="1073" y="726" width="59.0001" height="59.0001" stroke="#D0D5DC" stroke-width="2.29167" stroke-linejoin="round" stroke-miterlimit="10" fill="#F5F7FA"/><rect x="743" y="792" width="59.0001" height="59.0001" stroke="#D0D5DC" stroke-width="2.29167" stroke-linejoin="round" stroke-miterlimit="10" fill="#F5F7FA"/><rect x="809" y="792" width="59.0001" height="59.0001" stroke="#D0D5DC" stroke-width="2.29167" stroke-linejoin="round" stroke-miterlimit="10" fill="#F5F7FA"/><rect x="875" y="792" width="59.0001" height="59.0001" stroke="#D0D5DC" stroke-width="2.29167" stroke-linejoin="round" stroke-miterlimit="10" fill="#C0392B"/><rect x="941" y="792" width="59.0001" height="59.0001" stroke="#D0D5DC" stroke-width="2.29167" stroke-linejoin="round" stroke-miterlimit="10" fill="#F5F7FA"/><rect x="1007" y="792" width="59.0002" height="59.0001" stroke="#D0D5DC" stroke-width="2.29167" stroke-linejoin="round" stroke-miterlimit="10" fill="#F5F7FA"/><rect x="1073" y="792" width="59.0001" height="59.0001" stroke="#D0D5DC" stroke-width="2.29167" stroke-linejoin="round" stroke-miterlimit="10" fill="#F5F7FA"/><text fill="#C0392B" font-family="Calibri,Calibri_MSFontService,sans-serif" font-style="italic" font-weight="400" font-size="46" transform="matrix(1 0 0 1 742.5 913)">strided → cache thrash</text><text fill="#003D7C" font-family="Georgia,Georgia_MSFontService,sans-serif" font-weight="700" font-size="64" transform="matrix(1 0 0 1 198 988)">A</text><rect x="198" y="1040" width="59.0001" height="59.0001" stroke="#D0D5DC" stroke-width="2.29167" stroke-linejoin="round" stroke-miterlimit="10" fill="#F5F7FA"/><rect x="264" y="1040" width="59.0001" height="59.0001" stroke="#D0D5DC" stroke-width="2.29167" stroke-linejoin="round" stroke-miterlimit="10" fill="#F5F7FA"/><rect x="330" y="1040" width="59.0001" height="59.0001" stroke="#D0D5DC" stroke-width="2.29167" stroke-linejoin="round" stroke-miterlimit="10" fill="#F5F7FA"/><rect x="396" y="1040" width="59.0001" height="59.0001" stroke="#D0D5DC" stroke-width="2.29167" stroke-linejoin="round" stroke-miterlimit="10" fill="#F5F7FA"/><rect x="462" y="1040" width="59.0001" height="59.0001" stroke="#D0D5DC" stroke-width="2.29167" stroke-linejoin="round" stroke-miterlimit="10" fill="#F5F7FA"/><rect x="528" y="1040" width="59.0001" height="59.0001" stroke="#D0D5DC" stroke-width="2.29167" stroke-linejoin="round" stroke-miterlimit="10" fill="#F5F7FA"/><rect x="198" y="1106" width="59.0001" height="59.0001" stroke="#D0D5DC" stroke-width="2.29167" stroke-linejoin="round" stroke-miterlimit="10" fill="#F5F7FA"/><rect x="264" y="1106" width="59.0001" height="59.0001" stroke="#D0D5DC" stroke-width="2.29167" stroke-linejoin="round" stroke-miterlimit="10" fill="#F5F7FA"/><rect x="330" y="1106" width="59.0001" height="59.0001" stroke="#D0D5DC" stroke-width="2.29167" stroke-linejoin="round" stroke-miterlimit="10" fill="#F5F7FA"/><rect x="396" y="1106" width="59.0001" height="59.0001" stroke="#D0D5DC" stroke-width="2.29167" stroke-linejoin="round" stroke-miterlimit="10" fill="#F5F7FA"/><rect x="462" y="1106" width="59.0001" height="59.0001" stroke="#D0D5DC" stroke-width="2.29167" stroke-linejoin="round" stroke-miterlimit="10" fill="#F5F7FA"/><rect x="528" y="1106" width="59.0001" height="59.0001" stroke="#D0D5DC" stroke-width="2.29167" stroke-linejoin="round" stroke-miterlimit="10" fill="#F5F7FA"/><rect x="198" y="1172" width="59.0001" height="59.0001" stroke="#D0D5DC" stroke-width="2.29167" stroke-linejoin="round" stroke-miterlimit="10" fill="#EF7C00"/><rect x="264" y="1172" width="59.0001" height="59.0001" stroke="#D0D5DC" stroke-width="2.29167" stroke-linejoin="round" stroke-miterlimit="10" fill="#EF7C00"/><rect x="330" y="1172" width="59.0001" height="59.0001" stroke="#D0D5DC" stroke-width="2.29167" stroke-linejoin="round" stroke-miterlimit="10" fill="#EF7C00"/><rect x="396" y="1172" width="59.0001" height="59.0001" stroke="#D0D5DC" stroke-width="2.29167" stroke-linejoin="round" stroke-miterlimit="10" fill="#EF7C00"/><rect x="462" y="1172" width="59.0001" height="59.0001" stroke="#D0D5DC" stroke-width="2.29167" stroke-linejoin="round" stroke-miterlimit="10" fill="#EF7C00"/><rect x="528" y="1172" width="59.0001" height="59.0001" stroke="#D0D5DC" stroke-width="2.29167" stroke-linejoin="round" stroke-miterlimit="10" fill="#EF7C00"/><rect x="198" y="1238" width="59.0001" height="59.0001" stroke="#D0D5DC" stroke-width="2.29167" stroke-linejoin="round" stroke-miterlimit="10" fill="#F5F7FA"/><rect x="264" y="1238" width="59.0001" height="59.0001" stroke="#D0D5DC" stroke-width="2.29167" stroke-linejoin="round" stroke-miterlimit="10" fill="#F5F7FA"/><rect x="330" y="1238" width="59.0001" height="59.0001" stroke="#D0D5DC" stroke-width="2.29167" stroke-linejoin="round" stroke-miterlimit="10" fill="#F5F7FA"/><rect x="396" y="1238" width="59.0001" height="59.0001" stroke="#D0D5DC" stroke-width="2.29167" stroke-linejoin="round" stroke-miterlimit="10" fill="#F5F7FA"/><rect x="462" y="1238" width="59.0001" height="59.0001" stroke="#D0D5DC" stroke-width="2.29167" stroke-linejoin="round" stroke-miterlimit="10" fill="#F5F7FA"/><rect x="528" y="1238" width="59.0001" height="59.0001" stroke="#D0D5DC" stroke-width="2.29167" stroke-linejoin="round" stroke-miterlimit="10" fill="#F5F7FA"/><rect x="198" y="1304" width="59.0001" height="59.0001" stroke="#D0D5DC" stroke-width="2.29167" stroke-linejoin="round" stroke-miterlimit="10" fill="#F5F7FA"/><rect x="264" y="1304" width="59.0001" height="59.0001" stroke="#D0D5DC" stroke-width="2.29167" stroke-linejoin="round" stroke-miterlimit="10" fill="#F5F7FA"/><rect x="330" y="1304" width="59.0001" height="59.0001" stroke="#D0D5DC" stroke-width="2.29167" stroke-linejoin="round" stroke-miterlimit="10" fill="#F5F7FA"/><rect x="396" y="1304" width="59.0001" height="59.0001" stroke="#D0D5DC" stroke-width="2.29167" stroke-linejoin="round" stroke-miterlimit="10" fill="#F5F7FA"/><rect x="462" y="1304" width="59.0001" height="59.0001" stroke="#D0D5DC" stroke-width="2.29167" stroke-linejoin="round" stroke-miterlimit="10" fill="#F5F7FA"/><rect x="528" y="1304" width="59.0001" height="59.0001" stroke="#D0D5DC" stroke-width="2.29167" stroke-linejoin="round" stroke-miterlimit="10" fill="#F5F7FA"/><rect x="198" y="1370" width="59.0001" height="59.0001" stroke="#D0D5DC" stroke-width="2.29167" stroke-linejoin="round" stroke-miterlimit="10" fill="#F5F7FA"/><rect x="264" y="1370" width="59.0001" height="59.0001" stroke="#D0D5DC" stroke-width="2.29167" stroke-linejoin="round" stroke-miterlimit="10" fill="#F5F7FA"/><rect x="330" y="1370" width="59.0001" height="59.0001" stroke="#D0D5DC" stroke-width="2.29167" stroke-linejoin="round" stroke-miterlimit="10" fill="#F5F7FA"/><rect x="396" y="1370" width="59.0001" height="59.0001" stroke="#D0D5DC" stroke-width="2.29167" stroke-linejoin="round" stroke-miterlimit="10" fill="#F5F7FA"/><rect x="462" y="1370" width="59.0001" height="59.0001" stroke="#D0D5DC" stroke-width="2.29167" stroke-linejoin="round" stroke-miterlimit="10" fill="#F5F7FA"/><rect x="528" y="1370" width="59.0001" height="59.0001" stroke="#D0D5DC" stroke-width="2.29167" stroke-linejoin="round" stroke-miterlimit="10" fill="#F5F7FA"/><text fill="#003D7C" font-family="Georgia,Georgia_MSFontService,sans-serif" font-weight="400" font-size="110" transform="matrix(1 0 0 1 634.666 1275)">×</text><text fill="#2E7D32" font-family="Calibri,Calibri_MSFontService,sans-serif" font-weight="700" font-size="55" transform="matrix(1 0 0 1 742.5 983)">Bᵀ  (transposed: row</text><text fill="#2E7D32" font-family="Calibri,Calibri_MSFontService,sans-serif" font-weight="700" font-size="55" transform="matrix(1 0 0 1 1205.71 983)">-</text><text fill="#2E7D32" font-family="Calibri,Calibri_MSFontService,sans-serif" font-weight="700" font-size="55" transform="matrix(1 0 0 1 1222.33 983)">wise)</text><rect x="743" y="1040" width="59.0001" height="59.0001" stroke="#D0D5DC" stroke-width="2.29167" stroke-linejoin="round" stroke-miterlimit="10" fill="#F5F7FA"/><rect x="809" y="1040" width="59.0001" height="59.0001" stroke="#D0D5DC" stroke-width="2.29167" stroke-linejoin="round" stroke-miterlimit="10" fill="#F5F7FA"/><rect x="875" y="1040" width="59.0001" height="59.0001" stroke="#D0D5DC" stroke-width="2.29167" stroke-linejoin="round" stroke-miterlimit="10" fill="#F5F7FA"/><rect x="941" y="1040" width="59.0001" height="59.0001" stroke="#D0D5DC" stroke-width="2.29167" stroke-linejoin="round" stroke-miterlimit="10" fill="#F5F7FA"/><rect x="1007" y="1040" width="59.0002" height="59.0001" stroke="#D0D5DC" stroke-width="2.29167" stroke-linejoin="round" stroke-miterlimit="10" fill="#F5F7FA"/><rect x="1073" y="1040" width="59.0001" height="59.0001" stroke="#D0D5DC" stroke-width="2.29167" stroke-linejoin="round" stroke-miterlimit="10" fill="#F5F7FA"/><rect x="743" y="1106" width="59.0001" height="59.0001" stroke="#D0D5DC" stroke-width="2.29167" stroke-linejoin="round" stroke-miterlimit="10" fill="#F5F7FA"/><rect x="809" y="1106" width="59.0001" height="59.0001" stroke="#D0D5DC" stroke-width="2.29167" stroke-linejoin="round" stroke-miterlimit="10" fill="#F5F7FA"/><rect x="875" y="1106" width="59.0001" height="59.0001" stroke="#D0D5DC" stroke-width="2.29167" stroke-linejoin="round" stroke-miterlimit="10" fill="#F5F7FA"/><rect x="941" y="1106" width="59.0001" height="59.0001" stroke="#D0D5DC" stroke-width="2.29167" stroke-linejoin="round" stroke-miterlimit="10" fill="#F5F7FA"/><rect x="1007" y="1106" width="59.0002" height="59.0001" stroke="#D0D5DC" stroke-width="2.29167" stroke-linejoin="round" stroke-miterlimit="10" fill="#F5F7FA"/><rect x="1073" y="1106" width="59.0001" height="59.0001" stroke="#D0D5DC" stroke-width="2.29167" stroke-linejoin="round" stroke-miterlimit="10" fill="#F5F7FA"/><rect x="743" y="1172" width="59.0001" height="59.0001" stroke="#D0D5DC" stroke-width="2.29167" stroke-linejoin="round" stroke-miterlimit="10" fill="#2E7D32"/><rect x="809" y="1172" width="59.0001" height="59.0001" stroke="#D0D5DC" stroke-width="2.29167" stroke-linejoin="round" stroke-miterlimit="10" fill="#2E7D32"/><rect x="875" y="1172" width="59.0001" height="59.0001" stroke="#D0D5DC" stroke-width="2.29167" stroke-linejoin="round" stroke-miterlimit="10" fill="#2E7D32"/><rect x="941" y="1172" width="59.0001" height="59.0001" stroke="#D0D5DC" stroke-width="2.29167" stroke-linejoin="round" stroke-miterlimit="10" fill="#2E7D32"/><rect x="1007" y="1172" width="59.0002" height="59.0001" stroke="#D0D5DC" stroke-width="2.29167" stroke-linejoin="round" stroke-miterlimit="10" fill="#2E7D32"/><rect x="1073" y="1172" width="59.0001" height="59.0001" stroke="#D0D5DC" stroke-width="2.29167" stroke-linejoin="round" stroke-miterlimit="10" fill="#2E7D32"/><rect x="743" y="1238" width="59.0001" height="59.0001" stroke="#D0D5DC" stroke-width="2.29167" stroke-linejoin="round" stroke-miterlimit="10" fill="#F5F7FA"/><rect x="809" y="1238" width="59.0001" height="59.0001" stroke="#D0D5DC" stroke-width="2.29167" stroke-linejoin="round" stroke-miterlimit="10" fill="#F5F7FA"/><rect x="875" y="1238" width="59.0001" height="59.0001" stroke="#D0D5DC" stroke-width="2.29167" stroke-linejoin="round" stroke-miterlimit="10" fill="#F5F7FA"/><rect x="941" y="1238" width="59.0001" height="59.0001" stroke="#D0D5DC" stroke-width="2.29167" stroke-linejoin="round" stroke-miterlimit="10" fill="#F5F7FA"/><rect x="1007" y="1238" width="59.0002" height="59.0001" stroke="#D0D5DC" stroke-width="2.29167" stroke-linejoin="round" stroke-miterlimit="10" fill="#F5F7FA"/><rect x="1073" y="1238" width="59.0001" height="59.0001" stroke="#D0D5DC" stroke-width="2.29167" stroke-linejoin="round" stroke-miterlimit="10" fill="#F5F7FA"/><rect x="743" y="1304" width="59.0001" height="59.0001" stroke="#D0D5DC" stroke-width="2.29167" stroke-linejoin="round" stroke-miterlimit="10" fill="#F5F7FA"/><rect x="809" y="1304" width="59.0001" height="59.0001" stroke="#D0D5DC" stroke-width="2.29167" stroke-linejoin="round" stroke-miterlimit="10" fill="#F5F7FA"/><rect x="875" y="1304" width="59.0001" height="59.0001" stroke="#D0D5DC" stroke-width="2.29167" stroke-linejoin="round" stroke-miterlimit="10" fill="#F5F7FA"/><rect x="941" y="1304" width="59.0001" height="59.0001" stroke="#D0D5DC" stroke-width="2.29167" stroke-linejoin="round" stroke-miterlimit="10" fill="#F5F7FA"/><rect x="1007" y="1304" width="59.0002" height="59.0001" stroke="#D0D5DC" stroke-width="2.29167" stroke-linejoin="round" stroke-miterlimit="10" fill="#F5F7FA"/><rect x="1073" y="1304" width="59.0001" height="59.0001" stroke="#D0D5DC" stroke-width="2.29167" stroke-linejoin="round" stroke-miterlimit="10" fill="#F5F7FA"/><rect x="743" y="1370" width="59.0001" height="59.0001" stroke="#D0D5DC" stroke-width="2.29167" stroke-linejoin="round" stroke-miterlimit="10" fill="#F5F7FA"/><rect x="809" y="1370" width="59.0001" height="59.0001" stroke="#D0D5DC" stroke-width="2.29167" stroke-linejoin="round" stroke-miterlimit="10" fill="#F5F7FA"/><rect x="875" y="1370" width="59.0001" height="59.0001" stroke="#D0D5DC" stroke-width="2.29167" stroke-linejoin="round" stroke-miterlimit="10" fill="#F5F7FA"/><rect x="941" y="1370" width="59.0001" height="59.0001" stroke="#D0D5DC" stroke-width="2.29167" stroke-linejoin="round" stroke-miterlimit="10" fill="#F5F7FA"/><rect x="1007" y="1370" width="59.0002" height="59.0001" stroke="#D0D5DC" stroke-width="2.29167" stroke-linejoin="round" stroke-miterlimit="10" fill="#F5F7FA"/><rect x="1073" y="1370" width="59.0001" height="59.0001" stroke="#D0D5DC" stroke-width="2.29167" stroke-linejoin="round" stroke-miterlimit="10" fill="#F5F7FA"/><text fill="#2E7D32" font-family="Calibri,Calibri_MSFontService,sans-serif" font-style="italic" font-weight="400" font-size="46" transform="matrix(1 0 0 1 742.5 1491)">sequential → cache friendly</text></g></svg>