<svg width="1675" height="548" xmlns="http://www.w3.org/2000/svg" xmlns:xlink="http://www.w3.org/1999/xlink" xml:space="preserve" overflow="hidden"><g transform="translate(-140 -493)"><rect x="165.5" y="495.5" width="100" height="116" stroke="#FFFFFF" stroke-width="4.58333" stroke-linejoin="round" stroke-miterlimit="10" fill="#8B9BA7"/><rect x="265.5" y="495.5" width="72.0002" height="116" stroke="#FFFFFF" stroke-width="4.58333" stroke-linejoin="round" stroke-miterlimit="10" fill="#EF7C00"/><rect x="347.5" y="495.5" width="99" height="116" stroke="#FFFFFF" stroke-width="4.58333" stroke-linejoin="round" stroke-miterlimit="10" fill="#8B9BA7"/><rect x="446.5" y="495.5" width="72.9998" height="116" stroke="#FFFFFF" stroke-width="4.58333" stroke-linejoin="round" stroke-miterlimit="10" fill="#EF7C00"/><rect x="528.5" y="495.5" width="100" height="116" stroke="#FFFFFF" stroke-width="4.58333" stroke-linejoin="round" stroke-miterlimit="10" fill="#8B9BA7"/><rect x="628.5" y="495.5" width="72.0002" height="116" stroke="#FFFFFF" stroke-width="4.58333" stroke-linejoin="round" stroke-miterlimit="10" fill="#EF7C00"/><rect x="710.5" y="495.5" width="99" height="116" stroke="#FFFFFF" stroke-width="4.58333" stroke-linejoin="round" stroke-miterlimit="10" fill="#8B9BA7"/><rect x="809.5" y="495.5" width="72.9999" height="116" stroke="#FFFFFF" stroke-width="4.58333" stroke-linejoin="round" stroke-miterlimit="10" fill="#EF7C00"/><rect x="891.5" y="495.5" width="100" height="116" stroke="#FFFFFF" stroke-width="4.58333" stroke-linejoin="round" stroke-miterlimit="10" fill="#8B9BA7"/><rect x="991.5" y="495.5" width="72.0002" height="116" stroke="#FFFFFF" stroke-width="4.58333" stroke-linejoin="round" stroke-miterlimit="10" fill="#EF7C00"/><rect x="1073.5" y="495.5" width="99" height="116" stroke="#FFFFFF" stroke-width="4.58333" stroke-linejoin="round" stroke-miterlimit="10" fill="#8B9BA7"/><rect x="1172.5" y="495.5" width="72.9999" height="116" stroke="#FFFFFF" stroke-width="4.58333" stroke-linejoin="round" stroke-miterlimit="10" fill="#EF7C00"/><rect x="1254.5" y="495.5" width="100" height="116" stroke="#FFFFFF" stroke-width="4.58333" stroke-linejoin="round" stroke-miterlimit="10" fill="#8B9BA7"/><rect x="1354.5" y="495.5" width="72.0002" height="116" stroke="#FFFFFF" stroke-width="4.58333" stroke-linejoin="round" stroke-miterlimit="10" fill="#EF7C00"/><rect x="1436.5" y="495.5" width="99" height="116" stroke="#FFFFFF" stroke-width="4.58333" stroke-linejoin="round" stroke-miterlimit="10" fill="#8B9BA7"/><rect x="1535.5" y="495.5" width="72.9999" height="116" stroke="#FFFFFF" stroke-width="4.58333" stroke-linejoin="round" stroke-miterlimit="10" fill="#EF7C00"/><text fill="#8B9BA7" font-family="Calibri,Calibri_MSFontService,sans-serif" font-style="italic" font-weight="400" font-size="41" transform="matrix(1 0 0 1 165 674)">= handshake overhead</text><rect x="165.5" y="825.5" width="99" height="116" stroke="#FFFFFF" stroke-width="4.58333" stroke-linejoin="round" stroke-miterlimit="10" fill="#8B9BA7"/><rect x="264.5" y="825.5" width="1353" height="116" stroke="#FFFFFF" stroke-width="4.58333" stroke-linejoin="round" stroke-miterlimit="10" fill="#2E7D32"/><text fill="#2E7D32" font-family="Calibri,Calibri_MSFontService,sans-serif" font-style="italic" font-weight="400" font-size="41" transform="matrix(1 0 0 1 165 1004)">one setup  →  N elements streamed</text></g></svg>